# xmcd
#
# Track frame offsets: 
#        150
#        27384
#        50333
#        68765
#        87275
#        111010
#        131456
#        149586
#        171646
#        201286
#        224565
#        245659
#        263560
#        284364
#        302137
#
# Disc length: 4248 seconds
#
# Revision: 0
# Processed by: cddbd v1.5.1PL0 Copyright (c) Steve Scherf et al.
# Submitted via: ExactAudioCopy v0.95a5
#
DISCID=eb10960f
DTITLE=John Mayall and The Bluesbreakers - Road Dogs
DYEAR=2005
DGENRE=Blues
TTITLE0=Road Dogs
TTITLE1=Short Wave Radio
TTITLE2=So glad
TTITLE3=Forty Days
TTITLE4=To Heal the Pain
TTITLE5=Burned Bridges
TTITLE6=Snake Eye
TTITLE7=Kona Village
TTITLE8=Beyond Control
TTITLE9=Chaos in the Neighborhood
TTITLE10=You'll Survive
TTITLE11=Awestruck and Spellbound
TTITLE12=With You
TTITLE13=Brumwell's Beat
TTITLE14=Scrambling
EXTD=
EXTT0=
EXTT1=
EXTT2=
EXTT3=
EXTT4=
EXTT5=
EXTT6=
EXTT7=
EXTT8=
EXTT9=
EXTT10=
EXTT11=
EXTT12=
EXTT13=
EXTT14=
PLAYORDER=
